Patient4_TMGait_0pt7_01_right_23_EMG.mot
version=1
nRows=33
nColumns=33
inDegrees=no
endheader
time	1LAddLong	2LGlutMax	3LGlutMed	4LIliopsoas	5LSemiMemb	6LBicFemLong	7LRecFem	8LVastMed	9LVastLat	10LGasMed	11LTibAnt	12lTibPost	13LPeroneusLong	14LSol	15LExtDigLong	16LFlexDigLong	17RAddLong	18RGlutMax	19RGlutMed	20RIliopsoas	21RSemiMemb	22RBicFemLong	23RRecFem	24RVastMed	25RVastLat	26RGasMed	27RTibAnt	28RTibPost	29RPeroneusLong	30RSol	31RExtDigLong	32RFlexDigLong
26.715	-0.037079	0.39566	-0.036163	-0.005493	-0.10239	0.19501	0.12848	0.017395	-0.10361	0.030975	0.010071	0.003052	-0.12314	0.010223	-0.079346	-0.004578	-0.038757	-0.1268	-0.34073	0.1236	0.071106	0.029602	-0.13718	0.003815	0.016022	0.038757	0.050964	0.11261	-0.059204	-0.076752	-0.00061	0.001221
26.716	-0.019836	0.38818	-0.031433	0.00473	-0.022278	0.16647	-0.021667	0.022888	0.031891	0.036469	0.012665	0.001678	-0.031586	0.016022	-0.10376	-0.012207	-0.001831	-0.076294	-0.71686	0.10986	0.10971	-0.013733	-0.10452	0.035706	0.016174	0.12955	0.062714	-0.1799	-0.20325	-0.26688	0.000916	-0.008087
26.717	-0.028992	0.41016	-0.036621	0.010071	0.032654	0.28686	-0.051422	0.020905	0.15289	0.030212	-0.016479	0.010071	0.09613	0.023804	-0.09491	0.008698	0.00824	0.000763	-0.12558	0.020447	0.084076	-0.084229	-0.067291	-0.005341	-0.003662	0.024872	0.019989	-0.34134	-0.36987	-0.38544	0.010681	-0.002899
26.718	-0.024567	0.42602	-0.056458	-0.002747	-0.00946	0.35553	0.003204	0.017853	0.26154	0.052338	0.001526	0.014801	0.13367	-0.054321	-0.059052	-0.000458	0.027466	0.006714	0.40756	0.006104	0.046539	-0.14236	-0.042419	-0.044556	0.019836	-0.064392	-0.009918	0.056915	0.007019	-0.47867	-0.001526	-0.005341
26.719	-0.002899	0.40512	-0.055084	-0.019989	0.021667	0.22751	0.065308	0.003204	0.30991	0.077057	0.003662	0.008087	0.45624	-0.11765	0.01358	-0.003204	0.049896	-0.085754	0.023804	0.022278	-0.040894	-0.20172	-0.063019	-0.10223	0.020447	-0.005798	0.018768	-0.16403	-0.32501	-0.35172	-0.000458	-0.007172
26.72	0.008698	0.37903	-0.010834	-0.018311	0.14496	0.13534	0.033722	-0.00946	0.22171	0.034485	-0.09201	0.007477	0.76157	-0.00473	0.095367	-0.010986	0.055237	-0.099792	0.2092	-0.005188	-0.18097	-0.20142	-0.04364	-0.09613	0.024109	-0.000763	0.016937	0.052948	-0.4184	-0.58563	-0.001831	-0.005646
26.721	0.027008	0.38559	0.024414	-0.006866	0.14328	-0.18463	0.010834	-0.016022	0.15564	0.022125	-0.12222	0.012665	0.10208	0.092468	0.17624	0.001526	0.039673	-0.024414	0.018768	-0.023041	0.10819	-0.22217	-0.093842	-0.032349	0.011139	0.049591	0.067444	0.11612	-0.52887	-0.73944	-0.001831	-0.017853
26.722	0.011139	0.37766	0.01236	0.018921	0.06958	-0.33279	0.000763	-0.010223	-0.016632	0.039978	-0.097809	0.014954	-0.30853	-0.059814	0.035553	0.007935	0.037537	-0.017395	-0.053864	-0.10025	0.20691	-0.24872	-0.058136	-0.016327	0.015411	0.13657	0.13473	0.066376	-0.58609	0.20798	0.001373	-0.020294
26.723	0.003967	0.33737	-0.029755	-0.002289	-0.06546	-0.010223	0.009613	-0.000153	-0.030365	0.016174	-0.076294	0.009155	-0.011444	-0.013123	0.016937	0.007629	0.015564	-0.058441	-0.054474	-0.11032	0.070801	-0.076599	-0.079193	0.048828	0.034943	0.1149	0.13351	0.12512	0.23331	0.224	-0.001068	-0.014801
26.724	-0.019226	0.30716	-0.040741	0.014038	-0.18784	0.16708	0.004272	0.01358	-0.0177	0.009918	0.052032	0.005646	-0.32257	0.035706	0.049744	0.014343	-0.003967	-0.025024	-0.13702	-0.060425	-0.39719	0.26703	-0.059052	0.11047	0.027313	0.06134	0.051575	0.10437	0.3714	0.24933	-0.001526	-0.016632
26.725	-0.024719	0.30121	-0.038147	-0.00473	-0.12787	0.072327	0.007477	0.02243	0.096283	0.01358	0.10941	0.012207	-0.046387	0.072784	0.011292	0.006714	0.023804	-0.065613	-0.23041	-0.039978	-0.28442	0.24002	-0.076294	0.057373	0.033112	0.011597	-0.049896	-0.006561	1.0654	0.71503	-0.001526	-0.016785
26.726	-0.013885	0.26977	0.036011	0.004578	-0.014343	-0.095062	0.057526	0.022736	0.14053	0.025635	0.089264	0.019073	0.039673	0.082397	0.056915	0.02243	0.07782	-0.067291	-0.13397	-0.13672	-0.04837	0.11932	-0.021362	-0.00061	0.005035	-0.026398	-0.10315	-0.2713	0.9758	0.50064	-0.001678	-0.028534
26.727	-0.004883	0.25085	0.051117	0.028229	0.11673	-0.34821	0.060272	0.017395	0.12497	0.020599	0.090637	0.018768	-0.19577	0.072479	0.030518	0.024261	0.088654	0.032349	0.30685	-0.09613	-0.19898	0.071106	-0.049133	-0.032959	0.023804	-0.043945	-0.063171	-0.21759	0.14221	-0.3186	-0.00061	-0.018158
26.728	0.011139	0.2272	0.066833	0.0177	0.13351	-0.49728	0.091553	0.008545	0.045013	0.019379	0.019531	0.018005	-0.13748	-0.025482	-0.045319	0.026855	0.072021	0.003357	0.3122	-0.085754	0.067902	0.13031	-0.06134	0.018768	0.027313	-0.015717	-0.032349	-0.2803	-0.81696	-0.85892	0.000458	-0.003357
26.729	0.001221	0.21957	0.051727	0.007019	0.050354	-0.22018	0.087128	0.008392	-0.047302	0.045471	0.002594	0.021362	-0.40649	-0.12863	-0.1648	0.028534	0.081482	-0.000763	-0.06958	-0.06073	0.14099	0.1358	-0.038452	-0.033875	0.014648	-0.007935	-0.040131	0.38254	-0.8432	-0.87387	-0.002136	-0.000153
26.73	0.002136	0.26657	0.003967	-0.015106	0.049591	-0.12512	0.085297	0.006409	-0.075531	0.045776	0.003357	0.021057	-0.10483	-0.10071	-0.16037	0.04715	0.08255	0.002136	-0.20676	0.003052	0.027924	0.000153	-0.013733	-0.066681	0.019989	0.036316	-0.072174	-0.11566	0.27603	-0.88699	-0.000153	-0.023041
26.731	-0.001221	0.26413	0.022125	-0.009003	0.041809	-0.12253	0.045776	0.011597	-0.067596	0.032654	0.012512	0.025482	-0.23468	-0.06485	-0.03479	0.055542	0.05722	0.068817	-0.1355	-0.031891	0.045166	-0.16083	-0.02655	-0.089874	0.018158	0.044861	-0.056305	-0.15182	0.38391	-0.47501	0.003052	-0.021362
26.732	0.016785	0.13412	-0.007019	0.00412	0.048676	0.068817	-0.005188	0.019531	-0.075989	0.026855	0.020599	0.031891	-0.112	-0.047302	0.054321	0.063019	0.004578	0.11826	-0.15839	-0.054169	-0.076904	-0.19791	-0.023193	-0.021057	0.010071	-0.031128	-0.027313	-0.010986	0.44022	0.49942	-0.003052	-0.026703
26.733	0.014038	0.053711	0.024567	0.004883	0.025482	0.26428	-0.010529	0.016174	0.007935	0.00351	-0.003357	0.032349	0.47882	0.064392	0.10162	0.061951	-0.050507	0.13855	-0.15808	0.014801	-0.075989	-0.10544	-0.012512	0.039825	0.023499	-0.045624	-0.024567	0.07431	0.1622	1.2505	-0.000305	-0.022888
26.734	0.002747	-0.02121	0.13077	-0.002289	-0.026855	0.42618	0.012512	0.009308	0.071411	-0.004272	-0.001831	0.031586	0.41931	0.10559	0.090942	0.066986	-0.077667	0.18265	-0.13733	0.097198	-0.067444	0.055389	-0.007629	0.037842	0.030823	-0.090637	-0.014801	-0.121	0.54657	0.87097	-0.00061	-0.006104
26.735	0.029602	-0.098724	0.14191	0.004425	0.056458	0.35812	-0.053101	-0.011444	0.092163	-0.003662	0.000458	0.039978	-0.17624	0.08255	0.04425	0.049591	-0.064087	0.18204	-0.15793	0.20523	-0.24292	0.097961	0.021362	0.046387	0.025635	-0.09552	0.013733	0.11215	0.40405	0.25223	-0.000916	-0.014954
26.736	0.016479	-0.12573	0.10544	0.008087	0.13107	0.21744	-0.067902	-0.00946	0.070343	0.025635	0.000458	0.035858	-0.38147	-0.024261	-0.034637	0.038605	-0.088501	0.12146	-0.14435	0.14282	0.048523	0.08606	-0.038147	0.053864	0.052185	0.033417	0.05188	0.6163	0.10193	0.45502	-0.001526	-0.013733
26.737	0.016479	-0.15076	0.068817	0.013428	0.10849	-0.027466	-0.095367	-0.015259	0.03952	0.031281	0.018463	0.039368	-0.082092	-0.05249	-0.093689	0.026093	-0.063477	0.20355	-0.16113	0.02243	0.16342	0.070496	-0.00824	0.003052	0.019989	0.097656	0.10239	0.38544	-0.0914	0.62378	-0.001221	-0.014801
26.738	0.02243	-0.12985	0.044708	0.001373	-0.001831	0.23056	-0.071716	-0.007324	0.045929	0.005341	0.007172	0.037842	0.31525	-0.024261	-0.073395	0.023499	-0.024261	0.16754	-0.062408	0.002441	0.30823	0.054321	0.00885	-0.009613	0.018311	0.020294	0.08316	0.045166	-0.043335	0.48523	-0.00351	-0.016327
26.739	0.00412	-0.29602	0.066071	0.012054	-0.12894	0.3508	-0.069122	0.005646	0.06546	0.014038	0.000763	0.041809	0.031433	0.010986	-0.057068	0.00351	-0.005341	0.19577	-0.028229	0.068512	0.20462	-0.009766	0.003662	-0.007019	0.019989	-0.053253	0.041809	0.099335	0.016327	0.11551	0.002441	-0.011444
26.74	-0.028534	-0.33035	0.016937	0.029602	-0.24429	0.22919	0.00061	0.014954	0.037384	-0.005646	0.005646	0.037842	0.079956	0.045929	-0.026093	-0.019684	0.00885	0.15457	-0.033417	0.17288	0.088043	-0.045319	-0.008087	-0.00946	0.007629	-0.030823	-0.008698	0.001984	0.22964	0.28305	0.002441	-0.007935
26.741	-0.020905	-0.41016	-0.058594	0.021057	-0.23834	0.27405	0.00061	0.008087	0.13534	-0.00473	-0.014038	0.033264	0.079498	0.10895	0.016327	-0.052185	0.018616	0.21713	-0.019989	0.16861	-0.012817	-0.17151	0.029755	-0.027313	0.012512	-0.021515	0.000763	-0.04425	0.31036	0.72281	-0.000305	-0.002594
26.742	0.014954	-0.44373	-0.12497	0.004578	-0.15839	0.36255	-0.052948	0.001984	0.19424	-0.026245	-0.013275	0.039825	-0.029907	0.14374	0.007935	-0.068665	0.018463	0.31708	-0.001984	0.096893	-0.11017	-0.27023	0.001831	0.0383	0.019684	-0.020752	0.018463	-0.065155	0.30014	0.78079	0.000305	-0.013275
26.743	0.036316	-0.45593	-0.1062	0.003662	0.092468	0.40878	-0.045471	0.003967	0.16083	-0.060577	-0.016632	0.020905	-0.13458	0.17517	0.004272	-0.083923	0.006714	0.28397	-0.024109	0.061951	0.041199	-0.16434	0.015259	0.020447	0.026245	-0.008545	0.006409	-0.061035	0.28854	0.48065	-0.002136	-0.015717
26.744	0.049286	-0.48569	-0.014954	0.00885	0.24612	-0.032043	-0.08255	-0.011749	0.07843	-0.026703	-0.004578	0.011292	-0.09613	0.15366	-0.029449	-0.085297	0.009766	0.21332	0.15686	0.005798	0.12955	-0.022278	0.019379	-0.008545	0.000916	0.021362	0.021973	-0.059662	0.22537	-0.023193	-0.000153	-0.015106
26.745	0.04364	-0.41184	0.077667	0.008392	0.21591	-0.38345	-0.029297	-0.009766	-0.064087	-0.025024	0.000458	0.019073	0.17639	0.18204	-0.029297	-0.10681	0.03067	0.2153	0.013428	-0.00885	0.15671	0.17288	0.040588	-0.043793	-0.012054	0.01297	0.053101	-0.059662	0.14725	-0.2005	-0.000305	-0.022888
26.746	0.024567	-0.41031	0.080109	0.016479	0.057526	-0.35126	-0.028839	0.005798	-0.11566	-0.024567	-0.019073	0.036621	0.18875	0.22995	-0.007172	-0.10712	0.054474	0.18631	-0.000763	-0.028076	0.1796	0.11566	0.03418	-0.059052	-0.03418	0.014648	0.001526	-0.058746	0.048065	-0.24994	0.010071	-0.024109
26.747	0.002594	-0.43289	0.022736	0.002747	-0.083771	-0.20065	-0.042114	0.023956	-0.082855	0.012054	0.007019	0.039368	-0.045166	0.26566	0.004425	-0.10971	0.061798	0.19653	-0.023651	-0.029297	0.11993	-0.028534	0.037994	-0.012665	-0.014496	0.023499	-0.011597	-0.054626	-0.030975	-0.25955	-0.004883	-0.021973
